<svg xmlns="http://www.w3.org/2000/svg" viewBox="0 0 380 120" width="380" height="120">
  <defs>
    <linearGradient id="ladyGradient" gradientUnits="userSpaceOnUse" x1="60" y1="16" x2="60" y2="104">
      <stop offset="0%" stop-color="#c0298c"/>
      <stop offset="100%" stop-color="#e0794a"/>
    </linearGradient>
  </defs>

  <!-- Icon: woman's head on a white circle -->
  <circle cx="60" cy="60" r="60" fill="#ffffff"/>
  <g transform="translate(-81.4,16.32) scale(2.8)" fill="url(#ladyGradient)">
    <path d="M52.5801 11.9797C53.0115 11.5921 53.3541 11.2949 53.6967 10.9977C53.7981 10.9097 53.9533 10.7134 53.6079 10.8038C53.1638 10.9201 52.7197 11.0364 52.1106 11.2044C52.0344 10.4162 51.9329 9.71837 51.9076 9.00765C51.8695 8.14187 51.8949 7.289 51.9076 6.42322C51.9202 4.95009 51.1208 3.96801 49.9027 3.42527C49.3317 3.16683 48.9637 2.84378 48.6719 2.32689C48.3546 1.78416 47.9866 1.25435 47.6567 0.711619C47.5933 0.59532 47.606 0.440254 47.5552 0.194733C48.6718 0.1172 49.7377 -0.012022 50.8036 0.000900163C54.1154 0.0396667 57.0847 1.13805 59.7367 3.12806C61.843 4.70457 63.4419 6.74627 64.4824 9.16272C65.028 10.442 65.3072 11.8505 65.599 13.2203C65.7893 14.1119 65.8528 15.0423 65.8401 15.9469C65.7893 19.3195 64.7235 22.3433 62.7567 25.0441C61.2086 27.1633 59.2164 28.7527 56.8816 29.8511C55.4351 30.536 53.887 31.1046 52.2882 31.0658C51.4 31.0529 50.4864 30.5747 49.6362 30.2C48.3546 29.6314 47.1365 28.8949 46.1975 27.8223C45.6138 27.1633 45.1316 26.4009 45.0555 25.4446C44.9794 24.4496 45.6265 23.5839 46.5147 23.2479C47.6821 22.7956 48.8749 22.8602 50.0676 23.1703C50.8417 23.3771 51.6411 23.6872 52.4151 23.6743C53.5317 23.6614 54.1662 22.8731 53.8363 21.5938C53.5825 20.6505 53.4809 19.7331 54.0519 18.8543C54.09 18.7897 54.674 18.8027 54.7374 18.6734C54.8643 18.5442 53.8363 18.0543 54.9275 17.5492C55.3463 17.3554 55.3336 17.0323 55.0544 16.7351C54.8641 16.5284 54.623 16.3733 54.3819 16.2182C53.9124 15.921 53.9251 15.753 54.3946 15.4429C54.788 15.1844 55.4097 15.0294 55.194 14.3574C55.0798 14.0215 54.8133 13.6855 54.5342 13.4529C53.9378 12.9618 53.2907 12.5096 52.5801 11.9797Z"/>
    <path d="M52.5675 18.3375C52.8593 18.3633 53.1512 18.3891 53.5445 18.415C53.4176 18.9577 53.2146 19.4488 53.1892 19.9527C53.1638 20.5084 53.1892 21.1028 53.3542 21.6326C53.646 22.563 53.3161 23.1316 52.3644 23.054C51.6919 23.0024 51.0067 22.8473 50.3469 22.6664C48.7861 22.2658 47.2508 22.1624 45.7915 23.0411C44.8018 23.6485 44.3069 25.1604 44.713 26.2975C45.322 28.0291 46.6036 29.0887 48.0502 29.9803C48.7734 30.4326 49.5602 30.7944 50.3849 31.2338C49.9408 31.2338 49.4586 31.363 49.078 31.2079C47.9613 30.7686 46.832 30.3163 45.8042 29.696C44.5099 28.9207 43.3679 27.9516 42.7335 26.4913C42.1752 25.2121 41.9214 23.9715 42.2259 22.5372C42.5558 20.9994 43.0507 19.5651 43.812 18.2082C44.5353 16.9419 45.322 15.7143 46.058 14.4608C47.0858 12.7163 48.1644 11.0106 49.0653 9.21441C49.7505 7.84466 49.7505 6.30692 49.6363 4.7821C49.6236 4.63996 49.5094 4.51074 49.484 4.38152C49.4713 4.2523 49.484 4.08431 49.5475 3.98093C49.5729 3.92924 49.7886 3.94216 49.8774 3.99385C50.8291 4.51074 51.3747 5.29899 51.4128 6.42322C51.4381 7.19855 51.4635 7.97388 51.4128 8.74921C51.2605 10.7392 51.8823 12.3287 53.5572 13.44C53.8491 13.6338 54.1409 13.8147 54.4074 14.0473C54.8642 14.4479 54.8134 14.7839 54.2424 14.9389C53.7856 15.0682 53.24 15.2491 53.2654 15.7013C53.278 16.0244 53.8237 16.3087 54.1155 16.6188C54.2424 16.761 54.3439 16.9419 54.4581 17.0969C54.3312 17.1745 54.217 17.2778 54.0901 17.3425C53.7222 17.5104 53.3415 17.6526 52.9735 17.8335C52.7959 17.924 52.6436 18.0661 52.4786 18.1953C52.5167 18.2341 52.5421 18.2858 52.5675 18.3375Z"/>
    <path d="M39.5232 26.2846C38.2796 25.212 37.4168 23.9069 36.757 22.4726C36.0844 21.0253 35.5261 19.5263 35.4373 17.8981C35.3738 16.6188 35.1328 15.3266 35.2723 14.0731C35.5769 11.1915 36.5793 8.52953 38.3177 6.19062C39.6374 4.42028 41.2869 3.03761 43.1649 1.95215C43.3425 1.84877 43.7232 1.91338 43.8882 2.05553C45.2713 3.24437 45.8296 4.76918 45.6646 6.61705C45.487 8.5683 44.6622 10.2482 43.6978 11.8893C42.4416 14.0473 41.1727 16.2053 39.9673 18.3891C38.9775 20.1724 38.4953 22.1107 38.7745 24.1654C38.8506 24.7469 39.1679 25.2896 39.3709 25.8452C39.409 25.9874 39.4724 26.1295 39.5232 26.2846Z"/>
    <path d="M43.4821 28.9336C41.8706 28.0032 40.4114 26.879 39.6374 25.0828C39.1171 23.8811 39.1425 22.6147 39.4343 21.3483C40.1322 18.3633 41.9721 15.9985 43.4187 13.4141C44.2562 11.9151 45.081 10.4032 45.7788 8.83966C46.1214 8.09018 46.2737 7.21147 46.3245 6.38445C46.426 4.70457 45.8169 3.24437 44.6622 2.0426C44.18 1.53864 44.18 1.44818 44.8145 1.1639C45.3347 0.931298 45.8804 0.737465 46.4387 0.569477C46.7432 0.479022 47.0097 0.517788 47.2 0.905453C47.7076 1.9263 48.4182 2.8567 48.8115 3.91632C49.243 5.07931 49.2556 6.31984 48.9765 7.61206C48.507 9.71837 47.403 11.4499 46.2483 13.1944C44.8018 15.3912 43.3426 17.5751 42.3528 20.0303C41.8326 21.3354 41.4519 22.7181 41.5407 24.1654C41.6295 25.716 42.1498 27.0728 43.1903 28.21C43.3552 28.3909 43.4948 28.6235 43.6471 28.8173C43.5836 28.8561 43.5329 28.8949 43.4821 28.9336Z"/>
  </g>

  <!-- Wordmark: MEDSPA + MAPS -->
  <g transform="translate(138,-60.23) scale(2.2)" fill="#ffffff">
    <path d="M0.436854 56.0476C0.240439 56.0476 0.118526 55.9787 0.0711158 55.8407C0.0237053 55.6959 0 55.5234 0 55.3234V45.0808C0 44.9222 0.0406376 44.7911 0.121913 44.6877C0.209961 44.5773 0.318328 44.5221 0.447013 44.5221C0.663747 44.5221 0.870322 44.6704 1.06674 44.967L7.36556 54.6095L13.6644 44.967C13.854 44.6704 14.0606 44.5221 14.2841 44.5221C14.4128 44.5221 14.5178 44.5773 14.599 44.6877C14.6871 44.7911 14.7311 44.9222 14.7311 45.0808V55.3234C14.7311 55.5234 14.7074 55.6959 14.66 55.8407C14.6126 55.9787 14.4907 56.0476 14.2943 56.0476C14.1249 56.0476 14.0098 55.9787 13.9488 55.8407C13.8947 55.6959 13.8676 55.5234 13.8676 55.3234V46.1361L7.86337 55.1579C7.70082 55.3924 7.53488 55.5097 7.36556 55.5097C7.18269 55.5097 7.01676 55.3924 6.86775 55.1579L0.863549 46.1361V55.3234C0.863549 55.5234 0.83307 55.6959 0.772114 55.8407C0.717931 55.9787 0.606177 56.0476 0.436854 56.0476Z"/>
    <path d="M21.5753 56.0476C21.4466 56.0476 21.3687 56.027 21.3416 55.9856C21.3213 55.9442 21.3112 55.8442 21.3112 55.6855V45.0084C21.3112 44.8084 21.3247 44.6773 21.3518 44.6152C21.3789 44.5532 21.4906 44.5221 21.6871 44.5221H30.9626C31.159 44.5221 31.3317 44.5325 31.4807 44.5532C31.6365 44.5739 31.7144 44.6842 31.7144 44.8842C31.7144 45.0567 31.6365 45.1532 31.4807 45.1739C31.3317 45.1946 31.159 45.205 30.9626 45.205H22.1747V49.7365H30.9118C31.0608 49.7365 31.1861 49.7572 31.2877 49.7986C31.3893 49.84 31.4401 49.9297 31.4401 50.0676C31.4401 50.2194 31.3961 50.3194 31.308 50.3677C31.2267 50.4159 31.1184 50.4401 30.9829 50.4401H22.1747V55.3648H30.9829C31.1793 55.3648 31.352 55.3752 31.501 55.3958C31.6568 55.4165 31.7347 55.5131 31.7347 55.6855C31.7347 55.8856 31.6704 55.9959 31.5417 56.0166C31.4198 56.0304 31.2606 56.0408 31.0642 56.0476H21.5753Z"/>
    <path d="M38.2538 56.0476C38.0574 56.0476 37.9422 56.0339 37.9084 56.0063C37.8745 55.9718 37.8576 55.8649 37.8576 55.6855V44.9049C37.8576 44.7049 37.8745 44.5911 37.9084 44.5635C37.9422 44.5359 38.0641 44.5221 38.2741 44.5221H45.2434C46.7199 44.5221 47.9526 44.7015 48.9415 45.0601C49.9371 45.4188 50.6855 46.0189 51.1867 46.8603C51.6947 47.6949 51.9486 48.8295 51.9486 50.2642C51.9486 51.7333 51.6947 52.8886 51.1867 53.7301C50.6855 54.5716 49.9371 55.1682 48.9415 55.52C47.9526 55.8718 46.7199 56.0476 45.2434 56.0476H38.2538ZM38.7211 55.3648H45.2434C46.7132 55.3648 47.8713 55.1924 48.718 54.8475C49.5713 54.4957 50.1775 53.944 50.5365 53.1921C50.9022 52.4403 51.0851 51.4643 51.0851 50.2642C51.0851 49.0779 50.9022 48.1122 50.5365 47.3673C50.1775 46.6224 49.5713 46.0775 48.718 45.7326C47.8713 45.3809 46.7132 45.205 45.2434 45.205H38.7211V55.3648Z"/>
    <path d="M64.9494 56.2546C63.9877 56.2546 63.0361 56.1925 62.0946 56.0683C61.16 55.9442 60.3303 55.7924 59.6056 55.6131C58.8876 55.4338 58.3661 55.2682 58.041 55.1165C57.8582 55.0268 57.7667 54.8923 57.7667 54.713C57.7667 54.513 57.8548 54.413 58.0309 54.413C58.0783 54.413 58.1257 54.4233 58.1731 54.444C58.5253 54.5889 59.0705 54.7509 59.8088 54.9303C60.547 55.1027 61.3801 55.2545 62.308 55.3855C63.2426 55.5097 64.1739 55.5717 65.1018 55.5717C66.0026 55.5717 66.8357 55.489 67.601 55.3234C68.3731 55.151 68.9929 54.8647 69.4602 54.4647C69.9275 54.0647 70.1612 53.5198 70.1612 52.83C70.1612 52.2851 69.9851 51.8609 69.6329 51.5575C69.2807 51.2471 68.8066 51.016 68.2106 50.8643C67.6146 50.7125 66.944 50.6056 66.199 50.5435C65.4608 50.4815 64.6954 50.4366 63.903 50.409C63.1106 50.3746 62.3418 50.3194 61.5968 50.2435C60.8586 50.1676 60.1914 50.04 59.5954 49.8607C58.9994 49.6814 58.5253 49.4124 58.1731 49.0537C57.8209 48.695 57.6448 48.2157 57.6448 47.6156C57.6448 46.9535 57.8175 46.4086 58.1629 45.9809C58.5151 45.5464 58.9858 45.2084 59.5751 44.967C60.1643 44.7187 60.8247 44.5463 61.5562 44.4497C62.2877 44.3531 63.0361 44.3049 63.8014 44.3049C64.6412 44.3049 65.4574 44.3566 66.2498 44.4601C67.0423 44.5566 67.7534 44.6842 68.3833 44.8429C69.0132 45.0015 69.5008 45.1636 69.8462 45.3291C69.9546 45.3774 70.0088 45.4705 70.0088 45.6085C70.0088 45.705 69.9749 45.7947 69.9072 45.8775C69.8462 45.9602 69.7582 46.0016 69.6431 46.0016C69.5753 46.0016 69.5178 45.9878 69.4703 45.9602C68.7592 45.6567 67.899 45.4188 66.8899 45.2464C65.8807 45.0739 64.8648 44.9877 63.842 44.9877C62.9074 44.9877 62.0337 45.0636 61.2209 45.2153C60.4082 45.3671 59.7512 45.6292 59.25 46.0016C58.7556 46.3741 58.5084 46.8914 58.5084 47.5535C58.5084 48.0294 58.6845 48.3985 59.0366 48.6606C59.3888 48.9227 59.8629 49.1192 60.459 49.2503C61.055 49.3744 61.7221 49.4641 62.4604 49.5193C63.2054 49.5676 63.9741 49.6158 64.7665 49.6641C65.559 49.7055 66.3243 49.7745 67.0626 49.871C67.8076 49.9676 68.4781 50.1228 69.0741 50.3366C69.6701 50.5504 70.1442 50.8574 70.4964 51.2574C70.8486 51.6575 71.0247 52.1817 71.0247 52.83C71.0247 53.4922 70.8554 54.044 70.5168 54.4854C70.1849 54.9268 69.7311 55.2786 69.1554 55.5407C68.5797 55.7959 67.9295 55.9787 67.2048 56.089C66.4801 56.1994 65.7283 56.2546 64.9494 56.2546Z"/>
    <path d="M77.5946 56.0476C77.3982 56.0476 77.2695 55.9718 77.2085 55.82C77.1544 55.6614 77.1273 55.4752 77.1273 55.2613V44.9049C77.1273 44.7049 77.1645 44.5911 77.239 44.5635C77.3135 44.5359 77.449 44.5221 77.6454 44.5221H81.0183C81.9462 44.5221 82.7894 44.5704 83.548 44.667C84.3066 44.7566 84.9602 44.9429 85.5088 45.2257C86.0574 45.5085 86.4807 45.9223 86.7787 46.4672C87.0767 47.0052 87.2257 47.726 87.2257 48.6295C87.2257 49.5676 87.0598 50.2987 86.7279 50.8229C86.4028 51.3402 85.9524 51.7161 85.3767 51.9506C84.801 52.1782 84.1406 52.3196 83.3956 52.3748C82.6506 52.4231 81.8582 52.4472 81.0183 52.4472H77.9908V55.2613C77.9908 55.4614 77.9637 55.6441 77.9095 55.8097C77.8621 55.9683 77.7572 56.0476 77.5946 56.0476ZM77.9908 51.8058H81.0183C82.251 51.8058 83.2602 51.7437 84.0458 51.6195C84.8383 51.4885 85.4207 51.1988 85.7932 50.7505C86.1725 50.3021 86.3622 49.5952 86.3622 48.6295C86.3622 47.6708 86.1725 46.9466 85.7932 46.4568C85.4139 45.9671 84.8281 45.6361 84.0357 45.4636C83.25 45.2912 82.2442 45.205 81.0183 45.205H77.9908V51.8058Z"/>
    <path d="M90.8392 56.1511C90.6428 56.1511 90.5344 56.0614 90.5141 55.8821C90.4938 55.6959 90.531 55.5166 90.6259 55.3441L96.2237 45.0498C96.332 44.8498 96.4167 44.7118 96.4777 44.6359C96.5386 44.5601 96.6301 44.5221 96.752 44.5221C96.8468 44.5221 96.9314 44.5601 97.006 44.6359C97.0805 44.7049 97.1719 44.8429 97.2803 45.0498L102.888 55.3545C102.963 55.4855 103 55.62 103 55.758C103 56.0201 102.885 56.1511 102.655 56.1511C102.567 56.1511 102.475 56.1166 102.38 56.0476C102.285 55.9856 102.191 55.8683 102.096 55.6959L100.369 52.5093H93.1352L91.3878 55.7373C91.2456 56.0132 91.0627 56.1511 90.8392 56.1511ZM93.4298 51.8989H100.074L96.752 45.7223L93.4298 51.8989Z"/>
    <g transform="translate(-34.758,-44.949) scale(1.7)">
    <path d="M35.4067 64.9333C35.3433 64.9333 35.304 64.911 35.2887 64.8665C35.2734 64.8198 35.2658 64.7642 35.2658 64.6996V61.3956C35.2658 61.3444 35.2789 61.3021 35.3051 61.2687C35.3335 61.2331 35.3684 61.2153 35.4099 61.2153C35.4799 61.2153 35.5465 61.2632 35.6099 61.3589L37.6417 64.4693L39.6736 61.3589C39.7348 61.2632 39.8014 61.2153 39.8735 61.2153C39.915 61.2153 39.9489 61.2331 39.9751 61.2687C40.0035 61.3021 40.0177 61.3444 40.0177 61.3956V64.6996C40.0177 64.7642 40.0101 64.8198 39.9948 64.8665C39.9795 64.911 39.9402 64.9333 39.8768 64.9333C39.8222 64.9333 39.785 64.911 39.7654 64.8665C39.7479 64.8198 39.7392 64.7642 39.7392 64.6996V61.736L37.8023 64.6462C37.7499 64.7219 37.6964 64.7597 37.6417 64.7597C37.5827 64.7597 37.5292 64.7219 37.4812 64.6462L35.5443 61.736V64.6996C35.5443 64.7642 35.5345 64.8198 35.5148 64.8665C35.4973 64.911 35.4613 64.9333 35.4067 64.9333Z"/>
    <path d="M45.0687 64.9666C45.0054 64.9666 44.9704 64.9377 44.9638 64.8799C44.9573 64.8198 44.9693 64.7619 44.9999 64.7063L46.8056 61.3856C46.8406 61.321 46.8679 61.2765 46.8876 61.2521C46.9072 61.2276 46.9367 61.2153 46.9761 61.2153C47.0066 61.2153 47.034 61.2276 47.058 61.2521C47.082 61.2743 47.1115 61.3188 47.1465 61.3856L48.9555 64.7096C48.9795 64.7519 48.9916 64.7953 48.9916 64.8398C48.9916 64.9244 48.9544 64.9666 48.8801 64.9666C48.8517 64.9666 48.8222 64.9555 48.7916 64.9333C48.7611 64.9132 48.7305 64.8754 48.6999 64.8198L48.1427 63.7918H45.8094L45.2457 64.8331C45.1998 64.9221 45.1408 64.9666 45.0687 64.9666ZM45.9044 63.5949H48.0477L46.9761 61.6025L45.9044 63.5949Z"/>
    <path d="M54.095 64.9333C54.0316 64.9333 53.9901 64.9088 53.9704 64.8598C53.953 64.8087 53.9442 64.7486 53.9442 64.6796V61.3388C53.9442 61.2743 53.9562 61.2376 53.9803 61.2287C54.0043 61.2198 54.048 61.2153 54.1114 61.2153H55.1994C55.4987 61.2153 55.7707 61.2309 56.0154 61.2621C56.2601 61.291 56.471 61.3511 56.6479 61.4423C56.8249 61.5335 56.9615 61.667 57.0576 61.8428C57.1537 62.0163 57.2018 62.2488 57.2018 62.5403C57.2018 62.8429 57.1483 63.0787 57.0412 63.2478C56.9363 63.4147 56.791 63.536 56.6053 63.6116C56.4196 63.6851 56.2066 63.7307 55.9663 63.7485C55.7259 63.764 55.4703 63.7718 55.1994 63.7718H54.2228V64.6796C54.2228 64.7441 54.2141 64.8031 54.1966 64.8565C54.1813 64.9077 54.1474 64.9333 54.095 64.9333ZM54.2228 63.5649H55.1994C55.597 63.5649 55.9226 63.5449 56.176 63.5048C56.4316 63.4626 56.6195 63.3691 56.7397 63.2245C56.862 63.0799 56.9232 62.8518 56.9232 62.5403C56.9232 62.231 56.862 61.9974 56.7397 61.8394C56.6173 61.6815 56.4284 61.5747 56.1727 61.5191C55.9193 61.4634 55.5949 61.4356 55.1994 61.4356H54.2228V63.5649Z"/>
    <path d="M64.2584 65C63.9482 65 63.6412 64.98 63.3375 64.9399C63.036 64.8999 62.7684 64.8509 62.5346 64.7931C62.303 64.7352 62.1348 64.6818 62.0299 64.6329C61.9709 64.604 61.9414 64.5606 61.9414 64.5027C61.9414 64.4382 61.9698 64.4059 62.0266 64.4059C62.0419 64.4059 62.0572 64.4093 62.0725 64.4159C62.1861 64.4627 62.362 64.515 62.6002 64.5728C62.8383 64.6284 63.107 64.6774 63.4064 64.7197C63.7079 64.7597 64.0083 64.7797 64.3076 64.7797C64.5982 64.7797 64.8669 64.753 65.1138 64.6996C65.3629 64.644 65.5628 64.5517 65.7135 64.4226C65.8643 64.2936 65.9396 64.1178 65.9396 63.8953C65.9396 63.7195 65.8828 63.5827 65.7692 63.4848C65.6556 63.3847 65.5027 63.3101 65.3104 63.2612C65.1182 63.2122 64.9019 63.1778 64.6615 63.1577C64.4234 63.1377 64.1765 63.1232 63.9209 63.1143C63.6653 63.1032 63.4173 63.0854 63.1769 63.0609C62.9388 63.0365 62.7236 62.9953 62.5313 62.9375C62.3391 62.8796 62.1861 62.7928 62.0725 62.6771C61.9589 62.5614 61.9021 62.4068 61.9021 62.2132C61.9021 61.9996 61.9578 61.8239 62.0692 61.6859C62.1829 61.5457 62.3347 61.4367 62.5248 61.3589C62.7149 61.2788 62.9279 61.2231 63.1638 61.192C63.3998 61.1608 63.6412 61.1453 63.8881 61.1453C64.159 61.1453 64.4223 61.1619 64.6779 61.1953C64.9335 61.2265 65.1629 61.2676 65.3661 61.3188C65.5693 61.37 65.7266 61.4223 65.8381 61.4757C65.873 61.4912 65.8905 61.5213 65.8905 61.5658C65.8905 61.5969 65.8796 61.6258 65.8577 61.6525C65.8381 61.6792 65.8096 61.6926 65.7725 61.6926C65.7507 61.6926 65.7321 61.6881 65.7168 61.6792C65.4874 61.5814 65.2099 61.5046 64.8844 61.449C64.5588 61.3933 64.2311 61.3655 63.9012 61.3655C63.5997 61.3655 63.3179 61.39 63.0557 61.439C62.7935 61.4879 62.5816 61.5724 62.4199 61.6926C62.2604 61.8127 62.1807 61.9796 62.1807 62.1932C62.1807 62.3467 62.2375 62.4658 62.3511 62.5503C62.4647 62.6349 62.6176 62.6983 62.8099 62.7406C63.0022 62.7806 63.2174 62.8095 63.4555 62.8273C63.6958 62.8429 63.9438 62.8585 64.1994 62.8741C64.4551 62.8874 64.702 62.9096 64.9401 62.9408C65.1804 62.972 65.3967 63.022 65.589 63.091C65.7812 63.16 65.9342 63.259 66.0478 63.388C66.1614 63.5171 66.2182 63.6862 66.2182 63.8953C66.2182 64.1089 66.1636 64.2869 66.0544 64.4293C65.9473 64.5717 65.8009 64.6852 65.6152 64.7697C65.4295 64.852 65.2197 64.911 64.986 64.9466C64.7522 64.9822 64.5097 65 64.2584 65Z"/>
    </g>
  </g>
</svg>
