<svg width="33" height="72" viewBox="0 0 33 72" fill="none" xmlns="http://www.w3.org/2000/svg">
<mask id="path-1-outside-1_14227_3958" maskUnits="userSpaceOnUse" x="-0.9375" y="0" width="34" height="72" fill="black">
<rect fill="white" x="-0.9375" width="34" height="72"/>
<path d="M4.31953 71L17.2195 6.5L21.8195 11.9H1.21953L3.41953 0.999995H31.3195L17.3195 71H4.31953Z"/>
</mask>
<path d="M4.31953 71L3.33895 70.8039L3.09973 72H4.31953V71ZM17.2195 6.49999L17.9808 5.85153L16.6434 4.28158L16.239 6.30388L17.2195 6.49999ZM21.8195 11.9V12.9H23.985L22.5808 11.2515L21.8195 11.9ZM1.21953 11.9L0.239298 11.7022L-0.00246811 12.9H1.21953V11.9ZM3.41953 0.999992V-7.62939e-06H2.6012L2.4393 0.802147L3.41953 0.999992ZM31.3195 0.999992L32.3001 1.19611L32.5393 -7.62939e-06H31.3195V0.999992ZM17.3195 71V72H18.1393L18.3001 71.1961L17.3195 71ZM4.31953 71L5.30011 71.1961L18.2001 6.69611L17.2195 6.49999L16.239 6.30388L3.33895 70.8039L4.31953 71ZM17.2195 6.49999L16.4583 7.14846L21.0583 12.5485L21.8195 11.9L22.5808 11.2515L17.9808 5.85153L17.2195 6.49999ZM21.8195 11.9V10.9H1.21953V11.9V12.9H21.8195V11.9ZM1.21953 11.9L2.19976 12.0978L4.39977 1.19784L3.41953 0.999992L2.4393 0.802147L0.239298 11.7022L1.21953 11.9ZM3.41953 0.999992V1.99999H31.3195V0.999992V-7.62939e-06H3.41953V0.999992ZM31.3195 0.999992L30.339 0.803879L16.339 70.8039L17.3195 71L18.3001 71.1961L32.3001 1.19611L31.3195 0.999992ZM17.3195 71V70H4.31953V71V72H17.3195V71Z" fill="url(#paint0_linear_14227_3958)" mask="url(#path-1-outside-1_14227_3958)"/>
<defs>
<linearGradient id="paint0_linear_14227_3958" x1="13.0625" y1="-23" x2="13.0625" y2="77" gradientUnits="userSpaceOnUse">
<stop stop-color="white" stop-opacity="0.2"/>
<stop offset="1" stop-color="#A046A2"/>
</linearGradient>
</defs>
</svg>
