<svg width="35" height="31" viewBox="0 0 35 31" fill="none" xmlns="http://www.w3.org/2000/svg">
<path d="M33.1458 26.8893L29.0465 22.7542L30.2792 21.5215L34.4143 25.6208L33.1458 26.8893ZM27.4197 6.04329L26.187 4.81063L30.2863 0.7095L31.5548 1.94396L27.4197 6.04329ZM6.99467 6.07913L2.89354 1.94217L4.128 0.707708L8.26317 4.80883L6.99467 6.07913ZM1.23446 26.8875L0 25.619L4.10112 21.5179L5.36783 22.7524L1.23446 26.8875ZM9.97779 26.6636L17.2072 22.3295L24.4706 26.7442L22.5786 18.5384L28.9282 13.0648L20.563 12.3123L17.2072 4.56337L13.8854 12.264L5.52013 12.9842L11.8698 18.5348L9.97779 26.6636ZM7.24908 30.4583L9.88283 19.2156L1.08217 11.6118L12.6743 10.63L17.2072 0L21.7759 10.63L33.368 11.6118L24.5673 19.2156L27.2011 30.4583L17.2072 24.4742L7.24908 30.4583Z" fill="url(#paint0_linear_14227_4204)"/>
<defs>
<linearGradient id="paint0_linear_14227_4204" x1="17.2072" y1="0" x2="17.2072" y2="30.4583" gradientUnits="userSpaceOnUse">
<stop stop-color="#CF5D9A"/>
<stop offset="1" stop-color="#CF5D9A"/>
</linearGradient>
</defs>
</svg>
