<svg width="62" height="73" viewBox="0 0 62 73" fill="none" xmlns="http://www.w3.org/2000/svg">
<mask id="path-1-outside-1_14227_3957" maskUnits="userSpaceOnUse" x="-0.882812" y="0" width="63" height="73" fill="black">
<rect fill="white" x="-0.882812" width="63" height="73"/>
<path d="M1.21562 72L2.91562 63.3L35.9156 37.2C38.849 34.8667 41.1156 32.8 42.7156 31C44.3823 29.2 45.549 27.5 46.2156 25.9C46.8823 24.3 47.2156 22.6667 47.2156 21C47.2156 18.2667 46.2156 16.1 44.2156 14.5C42.2823 12.9 39.2823 12.1 35.2156 12.1C32.0823 12.1 29.0823 12.7667 26.2156 14.1C23.349 15.3667 20.8156 17.2 18.6156 19.6L9.81563 12.6C12.749 9.06666 16.5823 6.26666 21.3156 4.2C26.1156 2.06666 31.349 0.999996 37.0156 0.999996C41.8823 0.999996 46.049 1.8 49.5156 3.4C53.049 4.93333 55.749 7.06666 57.6156 9.8C59.4823 12.4667 60.4156 15.6 60.4156 19.2C60.4156 21.8667 59.9156 24.5 58.9156 27.1C57.9823 29.7 56.3823 32.3667 54.1156 35.1C51.9156 37.7667 48.749 40.7 44.6156 43.9L16.4156 66L13.9156 61H55.0156L52.7156 72H1.21562Z"/>
</mask>
<path d="M1.21562 72L0.234186 71.8082L0.00131035 73H1.21562V72ZM2.91563 63.3L2.29529 62.5157L2.00513 62.7451L1.93419 63.1082L2.91563 63.3ZM35.9156 37.2L36.536 37.9843L36.5382 37.9826L35.9156 37.2ZM42.7156 31L41.9819 30.3206L41.975 30.328L41.9682 30.3356L42.7156 31ZM46.2156 25.9L45.2925 25.5154V25.5154L46.2156 25.9ZM44.2156 14.5L43.5781 15.2704L43.5845 15.2757L43.5909 15.2809L44.2156 14.5ZM26.2156 14.1L26.6198 15.0147L26.6286 15.0108L26.6374 15.0067L26.2156 14.1ZM18.6156 19.6L17.9931 20.3826L18.7228 20.963L19.3528 20.2757L18.6156 19.6ZM9.81563 12.6L9.04622 11.9612L8.39396 12.7469L9.1931 13.3826L9.81563 12.6ZM21.3156 4.2L21.7158 5.11647L21.7218 5.11381L21.3156 4.2ZM49.5156 3.39999L49.0966 4.30795L49.107 4.31277L49.1175 4.31734L49.5156 3.39999ZM57.6156 9.8L56.7898 10.364L56.7964 10.3735L57.6156 9.8ZM58.9156 27.1L57.9823 26.741L57.9782 26.7515L57.9744 26.7621L58.9156 27.1ZM54.1156 35.1L53.3459 34.4617L53.3443 34.4636L54.1156 35.1ZM44.6156 43.9L44.0034 43.1093L43.9988 43.1129L44.6156 43.9ZM16.4156 66L15.5212 66.4472L16.0688 67.5423L17.0325 66.7871L16.4156 66ZM13.9156 61V60H12.2976L13.0212 61.4472L13.9156 61ZM55.0156 61L55.9945 61.2047L56.2463 60H55.0156V61ZM52.7156 72V73H53.5282L53.6945 72.2047L52.7156 72ZM1.21562 72L2.19706 72.1918L3.89706 63.4918L2.91563 63.3L1.93419 63.1082L0.234186 71.8082L1.21562 72ZM2.91563 63.3L3.53596 64.0843L36.536 37.9843L35.9156 37.2L35.2953 36.4157L2.29529 62.5157L2.91563 63.3ZM35.9156 37.2L36.5382 37.9826C39.4946 35.6309 41.81 33.524 43.463 31.6644L42.7156 31L41.9682 30.3356C40.4213 32.076 38.2033 34.1025 35.2931 36.4174L35.9156 37.2ZM42.7156 31L43.4494 31.6794C45.1655 29.826 46.4122 28.0282 47.1387 26.2846L46.2156 25.9L45.2925 25.5154C44.6857 26.9718 43.5991 28.574 41.9819 30.3206L42.7156 31ZM46.2156 25.9L47.1387 26.2846C47.8541 24.5677 48.2156 22.804 48.2156 21H47.2156H46.2156C46.2156 22.5294 45.9105 24.0323 45.2925 25.5154L46.2156 25.9ZM47.2156 21H48.2156C48.2156 17.9864 47.0953 15.5231 44.8403 13.7191L44.2156 14.5L43.5909 15.2809C45.336 16.6769 46.2156 18.547 46.2156 21H47.2156ZM44.2156 14.5L44.8532 13.7296C42.6587 11.9135 39.3804 11.1 35.2156 11.1V12.1V13.1C39.1842 13.1 41.9058 13.8865 43.5781 15.2704L44.2156 14.5ZM35.2156 12.1V11.1C31.9352 11.1 28.7914 11.7991 25.7939 13.1933L26.2156 14.1L26.6374 15.0067C29.3731 13.7343 32.2293 13.1 35.2156 13.1V12.1ZM26.2156 14.1L25.8115 13.1853C22.8136 14.51 20.1681 16.4265 17.8785 18.9243L18.6156 19.6L19.3528 20.2757C21.4632 17.9735 23.8843 16.2234 26.6198 15.0147L26.2156 14.1ZM18.6156 19.6L19.2381 18.8174L10.4381 11.8174L9.81563 12.6L9.1931 13.3826L17.9931 20.3826L18.6156 19.6ZM9.81563 12.6L10.585 13.2388C13.4068 9.8398 17.1075 7.12851 21.7158 5.11645L21.3156 4.2L20.9155 3.28355C16.0571 5.40482 12.0911 8.29353 9.04622 11.9612L9.81563 12.6ZM21.3156 4.2L21.7218 5.11381C26.3841 3.04167 31.4777 2 37.0156 2V1V0C31.2202 0 25.8472 1.09166 20.9095 3.28619L21.3156 4.2ZM37.0156 1V2C41.776 2 45.7922 2.78284 49.0966 4.30795L49.5156 3.39999L49.9347 2.49203C46.3058 0.817146 41.9886 0 37.0156 0V1ZM49.5156 3.39999L49.1175 4.31734C52.5067 5.7881 55.046 7.81048 56.7898 10.364L57.6156 9.8L58.4414 9.23603C56.4519 6.32285 53.5912 4.07856 49.9137 2.48265L49.5156 3.39999ZM57.6156 9.8L56.7964 10.3735C58.533 12.8543 59.4156 15.7824 59.4156 19.2H60.4156H61.4156C61.4156 15.4176 60.4316 12.079 58.4349 9.22654L57.6156 9.8ZM60.4156 19.2H59.4156C59.4156 21.7385 58.9402 24.2504 57.9823 26.741L58.9156 27.1L59.849 27.459C60.891 24.7496 61.4156 21.9948 61.4156 19.2H60.4156ZM58.9156 27.1L57.9744 26.7621C57.0898 29.2266 55.5585 31.7935 53.3459 34.4617L54.1156 35.1L54.8854 35.7383C57.2061 32.9398 58.8748 30.1734 59.8568 27.4379L58.9156 27.1ZM54.1156 35.1L53.3443 34.4636C51.2089 37.052 48.1047 39.9341 44.0035 43.1093L44.6156 43.9L45.2278 44.6907C49.3932 41.4659 52.6224 38.4814 54.887 35.7364L54.1156 35.1ZM44.6156 43.9L43.9988 43.1129L15.7988 65.2129L16.4156 66L17.0325 66.7871L45.2325 44.6871L44.6156 43.9ZM16.4156 66L17.3101 65.5528L14.8101 60.5528L13.9156 61L13.0212 61.4472L15.5212 66.4472L16.4156 66ZM13.9156 61V62H55.0156V61V60H13.9156V61ZM55.0156 61L54.0368 60.7953L51.7368 71.7953L52.7156 72L53.6945 72.2047L55.9945 61.2047L55.0156 61ZM52.7156 72V71H1.21562V72V73H52.7156V72Z" fill="url(#paint0_linear_14227_3957)" mask="url(#path-1-outside-1_14227_3957)"/>
<defs>
<linearGradient id="paint0_linear_14227_3957" x1="32.1172" y1="-22" x2="32.1172" y2="78" gradientUnits="userSpaceOnUse">
<stop stop-color="white" stop-opacity="0.2"/>
<stop offset="1" stop-color="#A046A2"/>
</linearGradient>
</defs>
</svg>
