<svg width="66" height="73" viewBox="0 0 66 73" fill="none" xmlns="http://www.w3.org/2000/svg">
<mask id="path-1-outside-1_14227_3965" maskUnits="userSpaceOnUse" x="-0.601562" y="0" width="66" height="73" fill="black">
<rect fill="white" x="-0.601562" width="66" height="73"/>
<path d="M26.3969 72C21.1302 72 16.2969 71.2667 11.8969 69.8C7.56354 68.2667 4.03021 66.2 1.29687 63.6L7.79688 53.7C9.93021 55.7667 12.6635 57.4667 15.9969 58.8C19.3969 60.0667 23.1302 60.7 27.1969 60.7C30.8635 60.7 33.9635 60.2333 36.4969 59.3C39.0302 58.3 40.9635 56.9 42.2969 55.1C43.6302 53.3 44.2969 51.1667 44.2969 48.7C44.2969 45.7 43.1635 43.4667 40.8969 42C38.6969 40.4667 35.3302 39.7 30.7969 39.7H24.4969L26.2969 30.8L50.7969 7.09999L52.0969 11.9H14.2969L16.4969 0.999995H64.0969L62.4969 9.7L37.8969 33.5L31.5969 29.6H34.4969C39.3635 29.6 43.4969 30.3333 46.8969 31.8C50.2969 33.2667 52.8969 35.4 54.6969 38.2C56.4969 40.9333 57.3969 44.2 57.3969 48C57.3969 52.6 56.0969 56.7333 53.4969 60.4C50.8969 64 47.2635 66.8333 42.5969 68.9C37.9302 70.9667 32.5302 72 26.3969 72Z"/>
</mask>
<path d="M11.8969 69.8L11.5633 70.7427L11.5719 70.7458L11.5806 70.7487L11.8969 69.8ZM1.29688 63.6L0.460948 63.0512L0.00269938 63.7491L0.607661 64.3246L1.29688 63.6ZM7.79688 53.7L8.49267 52.9818L7.62442 52.1406L6.96095 53.1512L7.79688 53.7ZM15.9969 58.8L15.6255 59.7285L15.6366 59.7329L15.6478 59.7371L15.9969 58.8ZM36.4969 59.3L36.8426 60.2383L36.8534 60.2344L36.864 60.2302L36.4969 59.3ZM42.2969 55.1L43.1004 55.6952V55.6952L42.2969 55.1ZM40.8969 42L40.3251 42.8204L40.3392 42.8302L40.3536 42.8396L40.8969 42ZM24.4969 39.7L23.5167 39.5018L23.2744 40.7H24.4969V39.7ZM26.2969 30.8L25.6016 30.0813L25.3783 30.2973L25.3167 30.6018L26.2969 30.8ZM50.7969 7.09999L51.7621 6.83858L51.3192 5.20338L50.1016 6.38125L50.7969 7.09999ZM52.0969 11.9V12.9H53.4037L53.0621 11.6386L52.0969 11.9ZM14.2969 11.9L13.3166 11.7022L13.0749 12.9H14.2969V11.9ZM16.4969 0.999992V-7.62939e-06H15.6785L15.5166 0.802147L16.4969 0.999992ZM64.0969 0.999992L65.0804 1.18087L65.2976 -7.62939e-06H64.0969V0.999992ZM62.4969 9.7L63.1922 10.4187L63.4224 10.1959L63.4804 9.88087L62.4969 9.7ZM37.8969 33.5L37.3705 34.3503L38.0326 34.7601L38.5922 34.2187L37.8969 33.5ZM31.5969 29.6V28.6H28.0816L31.0705 30.4503L31.5969 29.6ZM54.6969 38.2L53.8556 38.7408L53.8617 38.75L54.6969 38.2ZM53.4969 60.4L54.3076 60.9855L54.3126 60.9784L53.4969 60.4ZM42.5969 68.9L42.192 67.9856V67.9856L42.5969 68.9ZM26.3969 72V71C21.2233 71 16.4984 70.2797 12.2131 68.8513L11.8969 69.8L11.5806 70.7487C16.0954 72.2536 21.0371 73 26.3969 73V72ZM11.8969 69.8L12.2305 68.8573C8.00136 67.3608 4.59781 65.3598 1.98609 62.8754L1.29688 63.6L0.607661 64.3246C3.46261 67.0402 7.12572 69.1725 11.5633 70.7427L11.8969 69.8ZM1.29688 63.6L2.1328 64.1488L8.6328 54.2488L7.79688 53.7L6.96095 53.1512L0.460948 63.0512L1.29688 63.6ZM7.79688 53.7L7.10108 54.4182C9.34515 56.5922 12.196 58.3567 15.6255 59.7285L15.9969 58.8L16.3683 57.8715C13.1311 56.5767 10.5153 54.9411 8.49267 52.9818L7.79688 53.7ZM15.9969 58.8L15.6478 59.7371C19.1721 61.0501 23.0253 61.7 27.1969 61.7V60.7V59.7C23.2351 59.7 19.6216 59.0833 16.346 57.8629L15.9969 58.8ZM27.1969 60.7V61.7C30.9421 61.7 34.1668 61.2242 36.8426 60.2383L36.4969 59.3L36.1512 58.3617C33.7603 59.2425 30.785 59.7 27.1969 59.7V60.7ZM36.4969 59.3L36.864 60.2302C39.5336 59.1764 41.6339 57.675 43.1004 55.6952L42.2969 55.1L41.4933 54.5048C40.2932 56.125 38.5268 57.4236 36.1297 58.3698L36.4969 59.3ZM42.2969 55.1L43.1004 55.6952C44.5743 53.7055 45.2969 51.3582 45.2969 48.7H44.2969H43.2969C43.2969 50.9752 42.6861 52.8945 41.4933 54.5048L42.2969 55.1ZM44.2969 48.7H45.2969C45.2969 45.4054 44.0271 42.8344 41.4401 41.1604L40.8969 42L40.3536 42.8396C42.3 44.099 43.2969 45.9946 43.2969 48.7H44.2969ZM40.8969 42L41.4687 41.1796C39.0206 39.4734 35.408 38.7 30.7969 38.7V39.7V40.7C35.2524 40.7 38.3732 41.46 40.3251 42.8204L40.8969 42ZM30.7969 39.7V38.7H24.4969V39.7V40.7H30.7969V39.7ZM24.4969 39.7L25.477 39.8982L27.277 30.9982L26.2969 30.8L25.3167 30.6018L23.5167 39.5018L24.4969 39.7ZM26.2969 30.8L26.9922 31.5187L51.4922 7.81874L50.7969 7.09999L50.1016 6.38125L25.6016 30.0813L26.2969 30.8ZM50.7969 7.09999L49.8317 7.36141L51.1316 12.1614L52.0969 11.9L53.0621 11.6386L51.7621 6.83858L50.7969 7.09999ZM52.0969 11.9V10.9H14.2969V11.9V12.9H52.0969V11.9ZM14.2969 11.9L15.2771 12.0978L17.4771 1.19784L16.4969 0.999992L15.5166 0.802147L13.3166 11.7022L14.2969 11.9ZM16.4969 0.999992V1.99999H64.0969V0.999992V-7.62939e-06H16.4969V0.999992ZM64.0969 0.999992L63.1134 0.819122L61.5134 9.51912L62.4969 9.7L63.4804 9.88087L65.0804 1.18087L64.0969 0.999992ZM62.4969 9.7L61.8016 8.9813L37.2016 32.7813L37.8969 33.5L38.5922 34.2187L63.1922 10.4187L62.4969 9.7ZM37.8969 33.5L38.4232 32.6497L32.1232 28.7497L31.5969 29.6L31.0705 30.4503L37.3705 34.3503L37.8969 33.5ZM31.5969 29.6V30.6H34.4969V29.6V28.6H31.5969V29.6ZM34.4969 29.6V30.6C39.2681 30.6 43.2585 31.3196 46.5008 32.7182L46.8969 31.8L47.293 30.8818C43.7352 29.3471 39.459 28.6 34.4969 28.6V29.6ZM46.8969 31.8L46.5008 32.7182C49.7395 34.1153 52.1751 36.1266 53.8557 38.7408L54.6969 38.2L55.5381 37.6592C53.6186 34.6734 50.8542 32.418 47.293 30.8818L46.8969 31.8ZM54.6969 38.2L53.8617 38.75C55.5377 41.2951 56.3969 44.3633 56.3969 48H57.3969H58.3969C58.3969 44.0367 57.456 40.5716 55.532 37.65L54.6969 38.2ZM57.3969 48H56.3969C56.3969 52.3979 55.1583 56.3281 52.6811 59.8216L53.4969 60.4L54.3126 60.9784C57.0354 57.1385 58.3969 52.8021 58.3969 48H57.3969ZM53.4969 60.4L52.6862 59.8145C50.2046 63.2506 46.7212 65.9799 42.192 67.9856L42.5969 68.9L43.0018 69.8143C47.8059 67.6868 51.5892 64.7494 54.3076 60.9855L53.4969 60.4ZM42.5969 68.9L42.192 67.9856C37.6758 69.9856 32.4184 71 26.3969 71V72V73C32.6421 73 38.1846 71.9477 43.0018 69.8143L42.5969 68.9Z" fill="url(#paint0_linear_14227_3965)" mask="url(#path-1-outside-1_14227_3965)"/>
<defs>
<linearGradient id="paint0_linear_14227_3965" x1="33.3984" y1="-23" x2="33.3984" y2="77" gradientUnits="userSpaceOnUse">
<stop stop-color="white" stop-opacity="0.2"/>
<stop offset="1" stop-color="#A046A2"/>
</linearGradient>
</defs>
</svg>
