<svg width="68" height="72" viewBox="0 0 68 72" fill="none" xmlns="http://www.w3.org/2000/svg">
<mask id="path-1-outside-1_14227_3966" maskUnits="userSpaceOnUse" x="-0.257812" y="0" width="69" height="72" fill="black">
<rect fill="white" x="-0.257812" width="69" height="72"/>
<path d="M1.20664 55.1L2.90664 46.1L45.8066 0.999995H60.2066L17.8066 46.1L11.0066 44.1H66.7066L64.5066 55.1H1.20664ZM36.2066 71L39.5066 55.1L42.1066 44.1L45.0066 30H57.1066L48.9066 71H36.2066Z"/>
</mask>
<path d="M1.20664 55.1L0.224017 54.9144L6.86646e-05 56.1H1.20664V55.1ZM2.90664 46.1L2.18208 45.4108L1.97877 45.6245L1.92402 45.9144L2.90664 46.1ZM45.8066 0.999992V-7.62939e-06H45.3777L45.0821 0.310783L45.8066 0.999992ZM60.2066 0.999992L60.9352 1.68496L62.5193 -7.62939e-06H60.2066V0.999992ZM17.8066 46.1L17.5245 47.0594L18.1142 47.2328L18.5352 46.785L17.8066 46.1ZM11.0066 44.1V43.1L10.7245 45.0594L11.0066 44.1ZM66.7066 44.1L67.6872 44.2961L67.9264 43.1H66.7066V44.1ZM64.5066 55.1V56.1H65.3264L65.4872 55.2961L64.5066 55.1ZM36.2066 71L35.2275 70.7968L34.9778 72H36.2066V71ZM39.5066 55.1L38.5335 54.87L38.5303 54.8833L38.5275 54.8968L39.5066 55.1ZM42.1066 44.1L43.0798 44.33L43.0832 44.3158L43.0861 44.3015L42.1066 44.1ZM45.0066 30V29H44.1914L44.0271 29.7985L45.0066 30ZM57.1066 30L58.0872 30.1961L58.3264 29H57.1066V30ZM48.9066 71V72H49.7264L49.8872 71.1961L48.9066 71ZM1.20664 55.1L2.18926 55.2856L3.88927 46.2856L2.90664 46.1L1.92402 45.9144L0.224017 54.9144L1.20664 55.1ZM2.90664 46.1L3.6312 46.7892L46.5312 1.68921L45.8066 0.999992L45.0821 0.310783L2.18208 45.4108L2.90664 46.1ZM45.8066 0.999992V1.99999H60.2066V0.999992V-7.62939e-06H45.8066V0.999992ZM60.2066 0.999992L59.4781 0.315033L17.0781 45.415L17.8066 46.1L18.5352 46.785L60.9352 1.68496L60.2066 0.999992ZM17.8066 46.1L18.0888 45.1406L11.2888 43.1406L11.0066 44.1L10.7245 45.0594L17.5245 47.0594L17.8066 46.1ZM11.0066 44.1V45.1H66.7066V44.1V43.1H11.0066V44.1ZM66.7066 44.1L65.7261 43.9039L63.5261 54.9039L64.5066 55.1L65.4872 55.2961L67.6872 44.2961L66.7066 44.1ZM64.5066 55.1V54.1H1.20664V55.1V56.1H64.5066V55.1ZM36.2066 71L37.1858 71.2032L40.4858 55.3032L39.5066 55.1L38.5275 54.8968L35.2275 70.7968L36.2066 71ZM39.5066 55.1L40.4798 55.33L43.0798 44.33L42.1066 44.1L41.1335 43.87L38.5335 54.87L39.5066 55.1ZM42.1066 44.1L43.0861 44.3015L45.9861 30.2015L45.0066 30L44.0271 29.7985L41.1271 43.8985L42.1066 44.1ZM45.0066 30V31H57.1066V30V29H45.0066V30ZM57.1066 30L56.1261 29.8039L47.9261 70.8039L48.9066 71L49.8872 71.1961L58.0872 30.1961L57.1066 30ZM48.9066 71V70H36.2066V71V72H48.9066V71Z" fill="url(#paint0_linear_14227_3966)" mask="url(#path-1-outside-1_14227_3966)"/>
<defs>
<linearGradient id="paint0_linear_14227_3966" x1="33.7422" y1="-23" x2="33.7422" y2="77" gradientUnits="userSpaceOnUse">
<stop stop-color="white" stop-opacity="0.2"/>
<stop offset="1" stop-color="#A046A2"/>
</linearGradient>
</defs>
</svg>
